<svg width="642" height="231" viewBox="0 0 642 231" fill="none" xmlns="http://www.w3.org/2000/svg">
<path d="M162.602 228H137.699V127.072H25.1992V228H0.296875V13.8398H25.1992V105.1H137.699V13.8398H162.602V228ZM279.643 64.5234C293.314 64.5234 305.033 67.5508 314.799 73.6055C324.564 79.6602 332.035 88.1562 337.211 99.0938C342.387 109.934 344.975 122.629 344.975 137.18V152.268H234.086C234.379 171.115 239.066 185.471 248.148 195.334C257.23 205.197 270.023 210.129 286.527 210.129C296.684 210.129 305.668 209.201 313.48 207.346C321.293 205.49 329.398 202.756 337.797 199.143V220.529C329.691 224.143 321.635 226.779 313.627 228.439C305.717 230.1 296.342 230.93 285.502 230.93C270.072 230.93 256.596 227.805 245.072 221.555C233.646 215.207 224.76 205.93 218.412 193.723C212.064 181.516 208.891 166.574 208.891 148.898C208.891 131.613 211.771 116.672 217.533 104.074C223.393 91.3789 231.596 81.6133 242.143 74.7773C252.787 67.9414 265.287 64.5234 279.643 64.5234ZM279.35 84.4453C266.361 84.4453 256.01 88.6934 248.295 97.1895C240.58 105.686 235.99 117.551 234.525 132.785H319.486C319.389 123.215 317.875 114.816 314.945 107.59C312.113 100.266 307.768 94.6016 301.908 90.5977C296.049 86.4961 288.529 84.4453 279.35 84.4453ZM459.232 64.5234C462.455 64.5234 465.824 64.7188 469.34 65.1094C472.855 65.4023 475.98 65.8418 478.715 66.4277L475.639 88.9863C473.002 88.3027 470.072 87.7656 466.85 87.375C463.627 86.9844 460.6 86.7891 457.768 86.7891C451.322 86.7891 445.219 88.1074 439.457 90.7441C433.793 93.2832 428.812 96.9941 424.516 101.877C420.219 106.662 416.85 112.473 414.408 119.309C411.967 126.047 410.746 133.566 410.746 141.867V228H386.283V67.4531H406.498L409.135 97.043H410.16C413.48 91.0859 417.484 85.666 422.172 80.7832C426.859 75.8027 432.279 71.8477 438.432 68.918C444.682 65.9883 451.615 64.5234 459.232 64.5234ZM566.166 230.93C545.854 230.93 529.74 223.996 517.826 210.129C506.01 196.262 500.102 175.656 500.102 148.312C500.102 120.676 506.156 99.8262 518.266 85.7637C530.375 71.6035 546.488 64.5234 566.605 64.5234C575.102 64.5234 582.523 65.6465 588.871 67.8926C595.219 70.1387 600.688 73.166 605.277 76.9746C609.867 80.6855 613.725 84.9336 616.85 89.7188H618.607C618.217 86.6914 617.826 82.541 617.436 77.2676C617.045 71.9941 616.85 67.6973 616.85 64.377V0.0703125H641.166V228H621.537L617.875 205.148H616.85C613.822 209.934 609.965 214.279 605.277 218.186C600.688 222.092 595.17 225.217 588.725 227.561C582.377 229.807 574.857 230.93 566.166 230.93ZM569.975 210.715C587.162 210.715 599.32 205.832 606.449 196.066C613.578 186.301 617.143 171.799 617.143 152.561V148.166C617.143 127.756 613.725 112.082 606.889 101.145C600.15 90.207 587.846 84.7383 569.975 84.7383C555.033 84.7383 543.852 90.5 536.43 102.023C529.008 113.449 525.297 129.074 525.297 148.898C525.297 168.625 528.959 183.859 536.283 194.602C543.705 205.344 554.936 210.715 569.975 210.715Z" fill="url(#paint0_linear_15_32)"/>
<defs>
<linearGradient id="paint0_linear_15_32" x1="319.5" y1="-93" x2="319.5" y2="316" gradientUnits="userSpaceOnUse">
<stop offset="0.111401" stop-color="#EFBAD3"/>
<stop offset="0.819379" stop-color="#A163F5"/>
</linearGradient>
</defs>
</svg>
